# xmcd
# 
# Track frame offsets:
#     150
#     22396
#     78437
#     124249
#     166836
#     212956
#     246591
# 
# Disc length: 3985
# 
# Revision: 0
# Processed by: cddbd v1.5.2PL0 Copyright (c) Steve Scherf et al.
# Submitted via: BonkEnc v1.0.6
# 
DISCID=650f8f07
DTITLE=Tolstoi Leo - Krieg und Frieden 43
DYEAR=0
DGENRE=Speech
TTITLE0=4301
TTITLE1=4302
TTITLE2=4303
TTITLE3=4304
TTITLE4=4305
TTITLE5=4306
TTITLE6=4307
EXTD=
EXTT0=
EXTT1=
EXTT2=
EXTT3=
EXTT4=
EXTT5=
EXTT6=
PLAYORDER=
